<?xml version="1.0" standalone="no"?>
<!DOCTYPE svg PUBLIC "-//W3C//DTD SVG 20010904//EN"
 "http://www.w3.org/TR/2001/REC-SVG-20010904/DTD/svg10.dtd">
<svg version="1.0" xmlns="http://www.w3.org/2000/svg"
 width="640.000000pt" height="640.000000pt" viewBox="0 0 640.000000 640.000000"
 preserveAspectRatio="xMidYMid meet">
<metadata>
Created by potrace 1.14, written by Peter Selinger 2001-2017
</metadata>
<g transform="translate(0.000000,640.000000) scale(0.100000,-0.100000)"
fill="#000000" stroke="none">
<path d="M2300 5350 l0 -150 -200 0 -200 0 0 -150 0 -150 -150 0 -150 0 0
-250 0 -250 -150 0 -150 0 0 -1000 0 -1000 150 0 150 0 0 -1200 0 -1200 150 0
150 0 0 400 0 400 150 0 150 0 0 -150 0 -150 300 0 300 0 0 -250 0 -250 150 0
150 0 0 250 0 250 600 0 600 0 0 150 0 150 150 0 150 0 0 150 0 150 150 0 150
0 0 1900 0 1900 -150 0 -150 0 0 150 0 150 -150 0 -150 0 0 150 0 150 -1000 0
-1000 0 0 -150z m2000 -900 l0 -150 150 0 150 0 0 -1450 0 -1450 -150 0 -150
0 0 300 0 300 -750 0 -750 0 0 -300 0 -300 -150 0 -150 0 0 150 0 150 -150 0
-150 0 0 1300 0 1300 300 0 300 0 0 150 0 150 750 0 750 0 0 -150z m-2400
-1450 l0 -300 -150 0 -150 0 0 300 0 300 150 0 150 0 0 -300z m1500 -1750 l0
-150 -150 0 -150 0 0 150 0 150 150 0 150 0 0 -150z m600 0 l0 -150 -150 0
-150 0 0 150 0 150 150 0 150 0 0 -150z"/>
<path d="M2500 3150 l0 -150 150 0 150 0 0 150 0 150 -150 0 -150 0 0 -150z"/>
<path d="M4000 3150 l0 -150 150 0 150 0 0 150 0 150 -150 0 -150 0 0 -150z"/>
<path d="M3400 2350 l0 -150 300 0 300 0 0 150 0 150 -300 0 -300 0 0 -150z"/>
</g>
</svg>
